<svg xmlns="http://www.w3.org/2000/svg" width="16" height="16" class="bi bi-question-square svg-interrogante" viewBox="0 0 16 16">
  <defs>
    <linearGradient id="backgroundGradient" x1="0%" y1="0%" x2="100%" y2="0%">
      <stop offset="0%" stop-color="rgb(60, 179, 113)" />
      <stop offset="25%" stop-color="rgb(0, 128, 0)" />
      <stop offset="75%" stop-color="rgb(0, 100, 0)" />
      <stop offset="100%" stop-color="rgb(34, 139, 34)" />
    </linearGradient>
    <mask id="textMask" fill="white">
      <text x="50%" y="50%" text-anchor="middle" alignment-baseline="middle" font-family="Verdana, Geneva, Tahoma, sans-serif" font-size="15" font-weight="bolder" fill="none" stroke="white" stroke-width="2">?</text>
    </mask>
  </defs>
  <path d="M14 1a1 1 0 0 1 1 1v12a1 1 0 0 1-1 1H2a1 1 0 0 1-1-1V2a1 1 0 0 1 1-1h12zM2 0a2 2 0 0 0-2 2v12a2 2 0 0 0 2 2h12a2 2 0 0 0 2-2V2a2 2 0 0 0-2-2H2z" fill="url(#backgroundGradient)" stroke="url(#backgroundGradient)" />
  <text x="50%" y="50%" text-anchor="middle" alignment-baseline="middle" font-family="Verdana, Geneva, Tahoma, sans-serif" font-size="15" font-weight="bolder" fill="url(#backgroundGradient)" stroke="transparent" stroke-width="0" mask="url(#textMask)">?</text>
</svg>