<!-- <svg xmlns="http://www.w3.org/2000/svg" width="16" height="16" class="bi bi-question-square svg-interrogante" viewBox="0 0 16 16">
  <path d="M14 1a1 1 0 0 1 1 1v12a1 1 0 0 1-1 1H2a1 1 0 0 1-1-1V2a1 1 0 0 1 1-1h12zM2 0a2 2 0 0 0-2 2v12a2 2 0 0 0 2 2h12a2 2 0 0 0 2-2V2a2 2 0 0 0-2-2H2z" fill="red" />
  <path d="M5.255 5.786a.237.237 0 0 0 .241.247h.825c.138 0 .248-.113.266-.25.09-.656.54-1.134 1.342-1.134.686 0 1.314.343 1.314 1.168 0 .635-.374.927-.965 1.371-.673.489-1.206 1.06-1.168 1.987l.003.217a.25.25 0 0 0 .25.246h.811a.25.25 0 0 0 .25-.25v-.105c0-.718.273-.927 1.01-1.486.609-.463 1.244-.977 1.244-2.056 0-1.511-1.276-2.241-2.673-2.241-1.267 0-2.655.59-2.75 2.286zm1.557 5.763c0 .533.425.927 1.01.927.609 0 1.028-.394 1.028-.927 0-.552-.42-.94-1.029-.94-.584 0-1.009.388-1.009.94z" fill="red" />
</svg> -->


<!-- <svg xmlns="http://www.w3.org/2000/svg" width="16" height="16" class="bi bi-question-square svg-interrogante" viewBox="0 0 16 16">
  <defs>
    <linearGradient id="gradient" gradientTransform="rotate(90)">
      <stop offset="0%" stop-color="rgb(137,2,255)" />
      <stop offset="100%" stop-color="rgb(4,176,255)" />
    </linearGradient>
    <mask id="text-mask" fill="white">
      <text x="0" y="12" > ?</text>
    </mask>
  </defs>
  <path d="M14 1a1 1 0 0 1 1 1v12a1 1 0 0 1-1 1H2a1 1 0 0 1-1-1V2a1 1 0 0 1 1-1h12zM2 0a2 2 0 0 0-2 2v12a2 2 0 0 0 2 2h12a2 2 0 0 0 2-2V2a2 2 0 0 0-2-2H2z" fill="url(#gradient)" stroke="url(#gradient)" />
  <text x="0" y="12"  fill="none" stroke="white" stroke-width="2" mask="url(#text-mask)">?</text>
</svg> -->


<svg xmlns="http://www.w3.org/2000/svg" width="16" height="16" class="bi bi-question-square svg-interrogante" viewBox="0 0 16 16">
  <defs>
    <linearGradient id="backgroundGradient" x1="0%" y1="0%" x2="100%" y2="0%">
      <stop offset="0%" stop-color="rgb(236, 196, 64)" />
      <stop offset="25%" stop-color="rgb(255, 250, 138)" />
      <stop offset="75%" stop-color="rgb(221, 172, 23)" />
      <stop offset="100%" stop-color="rgb(255, 255, 149)" />
    </linearGradient>
    <mask id="textMask" fill="white">
      <text x="50%" y="50%" text-anchor="middle" alignment-baseline="middle" font-family="Verdana, Geneva, Tahoma, sans-serif" font-size="15" font-weight="bolder" fill="none" stroke="white" stroke-width="2">?</text>
    </mask>
  </defs>
  <path d="M14 1a1 1 0 0 1 1 1v12a1 1 0 0 1-1 1H2a1 1 0 0 1-1-1V2a1 1 0 0 1 1-1h12zM2 0a2 2 0 0 0-2 2v12a2 2 0 0 0 2 2h12a2 2 0 0 0 2-2V2a2 2 0 0 0-2-2H2z" fill="url(#backgroundGradient)" stroke="url(#backgroundGradient)" />
  <text x="50%" y="50%" text-anchor="middle" alignment-baseline="middle" font-family="Verdana, Geneva, Tahoma, sans-serif" font-size="15" font-weight="bolder" fill="url(#backgroundGradient)" stroke="transparent" stroke-width="0" mask="url(#textMask)">?</text>
</svg>
